<?xml version="1.0" encoding="UTF-8"?>
<svg xmlns="http://www.w3.org/2000/svg" xmlns:xlink="http://www.w3.org/1999/xlink" width="612" height="792" viewBox="0 0 612 792">
<defs>
<clipPath id="clip-0">
<path clip-rule="nonzero" d="M 289 384 L 320 384 L 320 397 L 289 397 Z M 289 384 "/>
</clipPath>
<clipPath id="clip-1">
<path clip-rule="evenodd" d="M 612 0 L 0 0 L 0 792 L 612 792 Z M 318.367188 395.792969 C 319.167969 395.578125 319.773438 395.113281 320.1875 394.394531 C 320.601562 393.675781 320.703125 392.917969 320.488281 392.117188 C 320.273438 391.316406 319.808594 390.710938 319.089844 390.296875 C 318.375 389.882812 317.613281 389.78125 316.816406 389.996094 L 293.632812 396.207031 C 292.832031 396.421875 292.226562 396.886719 291.8125 397.605469 C 291.398438 398.324219 291.296875 399.082031 291.511719 399.882812 C 291.726562 400.683594 292.191406 401.289062 292.910156 401.703125 C 293.625 402.117188 294.386719 402.21875 295.183594 402.003906 Z M 318.367188 395.792969 "/>
</clipPath>
<clipPath id="clip-2">
<path clip-rule="nonzero" d="M 292 395 L 323 395 L 323 408 L 292 408 Z M 292 395 "/>
</clipPath>
<clipPath id="clip-3">
<path clip-rule="evenodd" d="M 612 0 L 0 0 L 0 792 L 612 792 Z M 318.367188 395.792969 C 319.167969 395.578125 319.773438 395.113281 320.1875 394.394531 C 320.601562 393.675781 320.703125 392.917969 320.488281 392.117188 C 320.273438 391.316406 319.808594 390.710938 319.089844 390.296875 C 318.375 389.882812 317.613281 389.78125 316.816406 389.996094 L 293.632812 396.207031 C 292.832031 396.421875 292.226562 396.886719 291.8125 397.605469 C 291.398438 398.324219 291.296875 399.082031 291.511719 399.882812 C 291.726562 400.683594 292.191406 401.289062 292.910156 401.703125 C 293.625 402.117188 294.386719 402.21875 295.183594 402.003906 Z M 318.367188 395.792969 "/>
</clipPath>
<clipPath id="clip-4">
<path clip-rule="nonzero" d="M 305 379 L 318 379 L 318 410 L 305 410 Z M 305 379 "/>
</clipPath>
<clipPath id="clip-5">
<path clip-rule="evenodd" d="M 612 0 L 0 0 L 0 792 L 612 792 Z M 312.003906 406.816406 L 305.792969 383.632812 C 305.578125 382.832031 305.113281 382.226562 304.394531 381.8125 C 303.675781 381.398438 302.917969 381.296875 302.117188 381.511719 C 301.316406 381.726562 300.710938 382.191406 300.296875 382.910156 C 299.882812 383.625 299.78125 384.386719 299.996094 385.183594 L 306.207031 408.367188 C 306.421875 409.167969 306.886719 409.773438 307.605469 410.1875 C 308.324219 410.601562 309.082031 410.703125 309.882812 410.488281 C 310.683594 410.273438 311.289062 409.808594 311.703125 409.089844 C 312.117188 408.375 312.21875 407.613281 312.003906 406.816406 Z M 312.003906 406.816406 "/>
</clipPath>
<clipPath id="clip-6">
<path clip-rule="nonzero" d="M 294 382 L 307 382 L 307 413 L 294 413 Z M 294 382 "/>
</clipPath>
<clipPath id="clip-7">
<path clip-rule="evenodd" d="M 612 0 L 0 0 L 0 792 L 612 792 Z M 312.003906 406.816406 L 305.792969 383.632812 C 305.578125 382.832031 305.113281 382.226562 304.394531 381.8125 C 303.675781 381.398438 302.917969 381.296875 302.117188 381.511719 C 301.316406 381.726562 300.710938 382.191406 300.296875 382.910156 C 299.882812 383.625 299.78125 384.386719 299.996094 385.183594 L 306.207031 408.367188 C 306.421875 409.167969 306.886719 409.773438 307.605469 410.1875 C 308.324219 410.601562 309.082031 410.703125 309.882812 410.488281 C 310.683594 410.273438 311.289062 409.808594 311.703125 409.089844 C 312.117188 408.375 312.21875 407.613281 312.003906 406.816406 Z M 312.003906 406.816406 "/>
</clipPath>
</defs>
<g clip-path="url(#clip-0)">
<g clip-path="url(#clip-1)">
<path fill-rule="nonzero" fill="rgb(43.528748%, 79.219055%, 86.268616%)" fill-opacity="0.749" d="M 318.9375 386.320312 C 319.039062 386.707031 319.0625 387.097656 319.011719 387.488281 C 318.960938 387.882812 318.835938 388.253906 318.636719 388.597656 C 318.4375 388.941406 318.179688 389.238281 317.863281 389.480469 C 317.550781 389.722656 317.199219 389.894531 316.816406 389.996094 L 293.632812 396.207031 C 293.25 396.3125 292.859375 396.335938 292.464844 396.285156 C 292.070312 396.234375 291.699219 396.105469 291.355469 395.910156 C 291.011719 395.710938 290.71875 395.453125 290.476562 395.136719 C 290.234375 394.820312 290.0625 394.472656 289.957031 394.085938 C 289.855469 393.703125 289.828125 393.3125 289.882812 392.917969 C 289.933594 392.523438 290.058594 392.15625 290.257812 391.808594 C 290.457031 391.464844 290.714844 391.171875 291.03125 390.929688 C 291.34375 390.6875 291.695312 390.515625 292.078125 390.414062 L 315.261719 384.199219 C 315.644531 384.097656 316.035156 384.074219 316.429688 384.125 C 316.824219 384.175781 317.195312 384.300781 317.539062 384.5 C 317.882812 384.699219 318.175781 384.957031 318.417969 385.273438 C 318.660156 385.589844 318.832031 385.9375 318.9375 386.320312 Z M 318.9375 386.320312 "/>
</g>
</g>
<g clip-path="url(#clip-2)">
<g clip-path="url(#clip-3)">
<path fill-rule="nonzero" fill="rgb(88.238525%, 7.839966%, 38.42926%)" fill-opacity="0.749" d="M 322.042969 397.914062 C 322.144531 398.296875 322.171875 398.6875 322.117188 399.082031 C 322.066406 399.476562 321.941406 399.84375 321.742188 400.191406 C 321.542969 400.535156 321.285156 400.828125 320.96875 401.070312 C 320.65625 401.3125 320.304688 401.484375 319.921875 401.585938 L 296.738281 407.800781 C 296.355469 407.902344 295.964844 407.925781 295.570312 407.875 C 295.175781 407.824219 294.804688 407.699219 294.460938 407.5 C 294.117188 407.300781 293.824219 407.042969 293.582031 406.726562 C 293.339844 406.410156 293.167969 406.0625 293.0625 405.679688 C 292.960938 405.292969 292.933594 404.902344 292.988281 404.511719 C 293.039062 404.117188 293.164062 403.746094 293.363281 403.402344 C 293.5625 403.058594 293.820312 402.761719 294.136719 402.519531 C 294.449219 402.277344 294.800781 402.105469 295.183594 402.003906 L 318.367188 395.792969 C 318.75 395.6875 319.140625 395.664062 319.535156 395.714844 C 319.929688 395.765625 320.300781 395.894531 320.644531 396.089844 C 320.988281 396.289062 321.28125 396.546875 321.523438 396.863281 C 321.765625 397.179688 321.9375 397.527344 322.042969 397.914062 Z M 322.042969 397.914062 "/>
</g>
</g>
<g clip-path="url(#clip-4)">
<g clip-path="url(#clip-5)">
<path fill-rule="nonzero" fill="rgb(91.369629%, 66.268921%, 12.548828%)" fill-opacity="0.749" d="M 311.585938 382.078125 L 317.800781 405.261719 C 317.902344 405.644531 317.925781 406.035156 317.875 406.429688 C 317.824219 406.824219 317.699219 407.195312 317.5 407.539062 C 317.300781 407.882812 317.042969 408.175781 316.726562 408.417969 C 316.410156 408.660156 316.0625 408.832031 315.679688 408.9375 C 315.292969 409.039062 314.902344 409.066406 314.511719 409.011719 C 314.117188 408.960938 313.746094 408.835938 313.402344 408.636719 C 313.058594 408.4375 312.761719 408.179688 312.519531 407.863281 C 312.277344 407.550781 312.105469 407.199219 312.003906 406.816406 L 305.792969 383.632812 C 305.6875 383.25 305.664062 382.859375 305.714844 382.464844 C 305.765625 382.070312 305.894531 381.699219 306.089844 381.355469 C 306.289062 381.011719 306.546875 380.71875 306.863281 380.476562 C 307.179688 380.234375 307.527344 380.0625 307.914062 379.957031 C 308.296875 379.855469 308.6875 379.828125 309.082031 379.882812 C 309.476562 379.933594 309.84375 380.058594 310.191406 380.257812 C 310.535156 380.457031 310.828125 380.714844 311.070312 381.03125 C 311.3125 381.34375 311.484375 381.695312 311.585938 382.078125 Z M 311.585938 382.078125 "/>
</g>
</g>
<g clip-path="url(#clip-6)">
<g clip-path="url(#clip-7)">
<path fill-rule="nonzero" fill="rgb(23.919678%, 72.158813%, 56.079102%)" fill-opacity="0.749" d="M 299.996094 385.183594 L 306.207031 408.367188 C 306.3125 408.75 306.335938 409.140625 306.285156 409.535156 C 306.234375 409.929688 306.105469 410.300781 305.910156 410.644531 C 305.710938 410.988281 305.453125 411.28125 305.136719 411.523438 C 304.820312 411.765625 304.472656 411.9375 304.085938 412.042969 C 303.703125 412.144531 303.3125 412.171875 302.917969 412.117188 C 302.523438 412.066406 302.15625 411.941406 301.808594 411.742188 C 301.464844 411.542969 301.171875 411.285156 300.929688 410.96875 C 300.6875 410.65625 300.515625 410.304688 300.414062 409.921875 L 294.199219 386.738281 C 294.097656 386.355469 294.074219 385.964844 294.125 385.570312 C 294.175781 385.175781 294.300781 384.804688 294.5 384.460938 C 294.699219 384.117188 294.957031 383.824219 295.273438 383.582031 C 295.589844 383.339844 295.9375 383.167969 296.320312 383.0625 C 296.707031 382.960938 297.097656 382.9375 297.488281 382.988281 C 297.882812 383.039062 298.253906 383.164062 298.597656 383.363281 C 298.941406 383.5625 299.238281 383.820312 299.480469 384.136719 C 299.722656 384.449219 299.894531 384.800781 299.996094 385.183594 Z M 299.996094 385.183594 "/>
</g>
</g>
</svg>
